<?xml version="1.0" encoding="UTF-8"?>
<svg id="Layer_1" data-name="Layer 1" xmlns="http://www.w3.org/2000/svg" viewBox="0 0 1285 601">
  <defs>
    <style>
      .cls-1 {
        fill: #94d2e6;
      }

      .cls-2 {
        fill: #f48820;
      }

      .cls-3 {
        fill: #085870;
      }

      .cls-4 {
        fill: #fff;
      }
    </style>
  </defs>
  <rect class="cls-4" width="1285" height="601"/>
  <g>
    <path d="M508.14,267.53l-12.72,7.54c-2.38-4.13-4.64-6.82-6.8-8.07-2.24-1.44-5.14-2.15-8.68-2.15-4.35,0-7.96,1.23-10.83,3.7-2.87,2.42-4.31,5.47-4.31,9.15,0,5.07,3.77,9.15,11.31,12.25l10.36,4.24c8.43,3.41,14.6,7.57,18.5,12.48,3.9,4.91,5.85,10.94,5.85,18.07,0,9.56-3.19,17.45-9.56,23.69-6.42,6.28-14.38,9.42-23.89,9.42-9.02,0-16.47-2.67-22.34-8.01-5.79-5.34-9.4-12.85-10.83-22.54l15.88-3.5c.72,6.1,1.97,10.32,3.77,12.65,3.23,4.49,7.94,6.73,14.13,6.73,4.89,0,8.95-1.64,12.18-4.91,3.23-3.27,4.85-7.42,4.85-12.45,0-2.02-.28-3.87-.84-5.55-.56-1.68-1.44-3.23-2.62-4.64-1.19-1.41-2.72-2.73-4.61-3.97-1.88-1.23-4.13-2.41-6.73-3.53l-10.03-4.17c-14.22-6.01-21.33-14.8-21.33-26.38,0-7.81,2.98-14.33,8.95-19.58,5.97-5.29,13.39-7.94,22.27-7.94,11.98,0,21.33,5.83,28.06,17.5Z"/>
    <path d="M522.71,322.71c0-9.47,3.39-17.52,10.16-24.16,6.77-6.64,15.03-9.96,24.76-9.96s18.08,3.34,24.9,10.03c6.73,6.69,10.09,14.89,10.09,24.63s-3.39,18.06-10.16,24.69c-6.82,6.59-15.19,9.89-25.1,9.89s-18.06-3.37-24.7-10.09c-6.64-6.64-9.96-14.98-9.96-25.03ZM538.18,322.98c0,6.55,1.75,11.73,5.25,15.54,3.59,3.86,8.32,5.79,14.2,5.79s10.65-1.91,14.2-5.72c3.54-3.81,5.32-8.9,5.32-15.27s-1.77-11.46-5.32-15.28c-3.59-3.86-8.32-5.79-14.2-5.79s-10.48,1.93-14.06,5.79c-3.59,3.86-5.38,8.84-5.38,14.94Z"/>
    <path d="M605.5,290.41h15.21v6.06c5.29-5.25,11.26-7.87,17.9-7.87,7.63,0,13.57,2.4,17.83,7.2,3.68,4.08,5.52,10.74,5.52,19.99v40.17h-15.21v-36.61c0-6.46-.9-10.92-2.69-13.39-1.75-2.51-4.93-3.77-9.56-3.77-5.02,0-8.59,1.66-10.7,4.98-2.06,3.27-3.1,8.99-3.1,17.16v31.63h-15.21v-65.54Z"/>
    <path d="M726.25,290.41h15.21v65.54h-15.21v-6.86c-6.24,5.83-12.94,8.75-20.12,8.75-9.06,0-16.55-3.27-22.48-9.82-5.88-6.68-8.82-15.03-8.82-25.03s2.94-18.01,8.82-24.56c5.88-6.55,13.23-9.82,22.07-9.82,7.63,0,14.47,3.14,20.52,9.42v-7.6ZM690.32,322.98c0,6.28,1.68,11.39,5.05,15.34,3.45,3.99,7.81,5.99,13.05,5.99,5.61,0,10.14-1.93,13.59-5.79,3.45-3.99,5.18-9.06,5.18-15.21s-1.73-11.21-5.18-15.21c-3.45-3.9-7.94-5.85-13.46-5.85-5.2,0-9.56,1.97-13.05,5.92-3.46,3.99-5.18,8.93-5.18,14.8Z"/>
    <path d="M776.18,304.54v51.41h-15.14v-51.41h-6.46v-14.13h6.46v-24.02h15.14v24.02h11.78v14.13h-11.78Z"/>
    <path d="M847.78,290.41h15.21v65.54h-15.21v-6.86c-6.24,5.83-12.94,8.75-20.12,8.75-9.06,0-16.55-3.27-22.48-9.82-5.88-6.68-8.82-15.03-8.82-25.03s2.94-18.01,8.82-24.56c5.88-6.55,13.23-9.82,22.07-9.82,7.63,0,14.47,3.14,20.52,9.42v-7.6ZM811.85,322.98c0,6.28,1.68,11.39,5.05,15.34,3.45,3.99,7.81,5.99,13.05,5.99,5.61,0,10.14-1.93,13.59-5.79,3.45-3.99,5.18-9.06,5.18-15.21s-1.73-11.21-5.18-15.21c-3.45-3.9-7.94-5.85-13.46-5.85-5.2,0-9.56,1.97-13.05,5.92-3.46,3.99-5.18,8.93-5.18,14.8Z"/>
    <path d="M936.87,266.79h-36.2v24.97h34.92v14.74h-34.92v49.46h-15.68v-103.9h51.88v14.74Z"/>
    <path d="M967.29,242.29v113.66h-15.14v-113.66h15.14Z"/>
    <path d="M983.37,322.71c0-9.47,3.39-17.52,10.16-24.16,6.77-6.64,15.03-9.96,24.76-9.96s18.08,3.34,24.9,10.03c6.73,6.69,10.09,14.89,10.09,24.63s-3.39,18.06-10.16,24.69c-6.82,6.59-15.19,9.89-25.1,9.89s-18.06-3.37-24.7-10.09c-6.64-6.64-9.96-14.98-9.96-25.03ZM998.85,322.98c0,6.55,1.75,11.73,5.25,15.54,3.59,3.86,8.32,5.79,14.2,5.79s10.65-1.91,14.2-5.72c3.54-3.81,5.32-8.9,5.32-15.27s-1.77-11.46-5.32-15.28c-3.59-3.86-8.32-5.79-14.2-5.79s-10.48,1.93-14.06,5.79c-3.59,3.86-5.38,8.84-5.38,14.94Z"/>
    <path d="M1074.89,290.41l17.16,37.41,18.5-43.4,18.64,43.4,16.96-37.41h16.96l-34.32,70.45-18.24-42.19-18.44,42.19-34.25-70.45h17.03Z"/>
    <path class="cls-3" d="M261.9,437.98c-77.2,0-140-62.81-140-140s62.81-140,140-140,140,62.81,140,140-62.81,140-140,140ZM261.9,162.77c-74.55,0-135.2,60.65-135.2,135.2s60.65,135.2,135.2,135.2,135.2-60.65,135.2-135.2-60.65-135.2-135.2-135.2Z"/>
    <path class="cls-2" d="M367.93,325.12c-9.75,3.15-16.67,2.33-22.62-4.2-.99,1.3-1.98,2.58-3,3.82-5.48,6.81-14.24,16.73-24.75,13.92-6.77-2.21-11.36-10.55-14.73-19.61-.68,2.56-1.23,4.67-1.66,6.01-2.97,10.88-5.64,21.57-10.24,32.19-4.03,9.95-13.51,22.02-26.11,18.36-14.7-4.91-19.26-27.4-23.09-40.47-2.71-10.79-5.01-21.49-7.33-32.07-.86-3.84-1.72-7.68-2.63-11.48-5.27,13.14-12.13,23.39-21.89,32.29-7.08,6.39-18.53,9.51-27.46,10.12-8.32.56-16.92-.16-24.86-3.04,13.99,44.32,55.42,76.45,104.36,76.45s94.16-35.15,106.11-82.63c-.03.11-.05.23-.08.34Z"/>
    <g>
      <path class="cls-1" d="M321.79,286.53c-4.42-1.85-8.19,2.65-11.29,9.22,2.4,9.08,4.77,18.15,8.61,26.57.73,1.6,2.88,6.38,14.43-5.16,1.74-1.74,3.53-3.75,5.37-5.83-1.76-3.29-3.24-6.55-4.82-9.65-3.36-6.24-6.19-12.79-12.29-15.15Z"/>
      <path class="cls-1" d="M358.19,305.97c-2.51,2.06-4.78,4.57-6.95,7.24,1.86,2.83,4.06,4.91,6.76,5.2,3.51.13,7.24-.72,11.18-1.65.72-4.1,1.21-8.27,1.47-12.51-1.97-.47-3.96-.72-6-.59-2.78.01-4.14.53-6.47,2.31Z"/>
      <path class="cls-1" d="M182.21,327.11c5.97-1.06,11.94-2.9,16.81-6.12,8.43-5.57,13.55-14.82,18.19-23.7,3.62-6.96,6.85-14.19,10.16-21.38-.39-1.19-.8-2.36-1.22-3.52-1.85-4.56-3.59-10.81-7.83-12.84-6.03-2.87-18.94,17.72-24.36,27.11-5.55,9.61-10.48,19.51-20.96,25.65-5.5,3.23-11.88,5.24-18.46,6.29.52,2.69,1.14,5.35,1.85,7.97.32.1.64.21.96.31,7.99,2.42,16.64,1.68,24.84.23Z"/>
      <path class="cls-1" d="M240.89,275.16c2.82,8.28,4.91,16.51,7.02,24.7,3.81,13.06,8.83,56.6,20.48,56.89,10.44.27,19.75-40.45,24.18-51.36,1.01-2.74,2.08-5.78,3.29-8.86-4.61-15.61-8.01-28.29-15.91-42.03-12.24-22.55-30.7,5.62-39.06,20.65Z"/>
    </g>
    <path class="cls-3" d="M261.67,188.59c-60.31,0-109.2,49.41-109.2,109.72,0,4.55.28,9.03.82,13.43.02.03.04.06.04.06,0,0,9.17-3.86,12.8-7.07,12.28-10.84,16.22-25.6,25.29-39.02,7.05-10.44,22.6-26.16,36.6-14.19,3.03,2.8,5.1,5.85,6.82,9.1,4-7.54,8.46-14.85,14.19-21.39,13.41-15.32,31.83-15.31,42.78,3.06,6.87,11.53,10.92,24.21,14.39,37.08,2.94-2.77,6.49-4.77,10.89-5.42,6.55-.73,13.72,2.81,17.64,7.59,4.42,5.11,6.76,10.52,9.04,15.62.84,1.68,1.72,3.87,2.67,6.21,5.23-4.87,11.19-8.57,18.47-7.85,2.09.04,4.05.41,5.95.97-.7-59.71-49.31-107.89-109.18-107.89Z"/>
  </g>
</svg>