<?xml version="1.0" encoding="UTF-8"?>
<svg id="Layer_1" data-name="Layer 1" xmlns="http://www.w3.org/2000/svg" viewBox="0 0 1021 746">
  <defs>
    <style>
      .cls-1 {
        fill: #94d2e6;
      }

      .cls-2 {
        fill: #f48820;
      }

      .cls-3 {
        fill: #085870;
      }

      .cls-4 {
        fill: #fff;
      }
    </style>
  </defs>
  <rect class="cls-4" width="1021" height="746"/>
  <g>
    <path d="M275.14,522.82l-10.49,6.22c-1.96-3.41-3.83-5.63-5.61-6.66-1.85-1.18-4.24-1.78-7.16-1.78-3.59,0-6.57,1.02-8.94,3.05-2.37,2-3.55,4.52-3.55,7.55,0,4.18,3.11,7.55,9.33,10.11l8.55,3.5c6.96,2.81,12.05,6.25,15.27,10.3,3.22,4.05,4.83,9.02,4.83,14.91,0,7.89-2.63,14.4-7.89,19.55-5.29,5.18-11.86,7.77-19.71,7.77-7.44,0-13.59-2.2-18.44-6.61-4.78-4.4-7.76-10.6-8.94-18.6l13.1-2.89c.59,5.04,1.63,8.51,3.11,10.44,2.67,3.7,6.55,5.55,11.66,5.55,4.03,0,7.38-1.35,10.05-4.05,2.67-2.7,4-6.13,4-10.27,0-1.67-.23-3.19-.69-4.58-.46-1.39-1.18-2.66-2.17-3.83-.98-1.17-2.25-2.26-3.8-3.28-1.55-1.02-3.41-1.99-5.55-2.92l-8.27-3.44c-11.74-4.96-17.6-12.22-17.6-21.77,0-6.44,2.46-11.83,7.38-16.16,4.92-4.37,11.05-6.55,18.38-6.55,9.88,0,17.6,4.81,23.15,14.44Z"/>
    <path d="M287.16,568.36c0-7.81,2.79-14.45,8.39-19.93,5.59-5.48,12.4-8.22,20.43-8.22s14.92,2.76,20.55,8.27c5.55,5.52,8.33,12.29,8.33,20.32s-2.8,14.9-8.38,20.38c-5.63,5.44-12.53,8.16-20.71,8.16s-14.9-2.78-20.38-8.33c-5.48-5.48-8.22-12.36-8.22-20.66ZM299.93,568.58c0,5.4,1.44,9.68,4.33,12.83,2.96,3.18,6.87,4.78,11.72,4.78s8.79-1.57,11.72-4.72c2.92-3.15,4.39-7.35,4.39-12.6s-1.46-9.46-4.39-12.61c-2.96-3.18-6.87-4.77-11.72-4.77s-8.64,1.59-11.61,4.77c-2.96,3.18-4.44,7.29-4.44,12.33Z"/>
    <path d="M355.48,541.7h12.55v5c4.37-4.33,9.29-6.5,14.77-6.5,6.29,0,11.2,1.98,14.71,5.94,3.04,3.37,4.55,8.87,4.55,16.49v33.15h-12.55v-30.21c0-5.33-.74-9.01-2.22-11.05-1.44-2.07-4.07-3.11-7.89-3.11-4.15,0-7.09,1.37-8.83,4.11-1.7,2.7-2.55,7.42-2.55,14.16v26.1h-12.55v-54.08Z"/>
    <path d="M455.12,541.7h12.55v54.08h-12.55v-5.66c-5.15,4.81-10.68,7.22-16.6,7.22-7.48,0-13.66-2.7-18.55-8.11-4.85-5.52-7.27-12.4-7.27-20.66s2.42-14.86,7.27-20.27c4.85-5.4,10.92-8.11,18.21-8.11,6.29,0,11.94,2.59,16.94,7.77v-6.27ZM425.47,568.58c0,5.18,1.39,9.4,4.16,12.66,2.85,3.3,6.44,4.94,10.77,4.94,4.63,0,8.37-1.59,11.22-4.78,2.85-3.29,4.28-7.48,4.28-12.55s-1.43-9.25-4.28-12.55c-2.85-3.22-6.55-4.83-11.11-4.83-4.29,0-7.89,1.63-10.77,4.89-2.85,3.3-4.28,7.37-4.28,12.22Z"/>
    <path d="M496.33,553.36v42.42h-12.49v-42.42h-5.33v-11.66h5.33v-19.82h12.49v19.82h9.72v11.66h-9.72Z"/>
    <path d="M555.41,541.7h12.55v54.08h-12.55v-5.66c-5.15,4.81-10.68,7.22-16.6,7.22-7.48,0-13.66-2.7-18.55-8.11-4.85-5.52-7.27-12.4-7.27-20.66s2.42-14.86,7.27-20.27c4.85-5.4,10.92-8.11,18.21-8.11,6.29,0,11.94,2.59,16.94,7.77v-6.27ZM525.75,568.58c0,5.18,1.39,9.4,4.16,12.66,2.85,3.3,6.44,4.94,10.77,4.94,4.63,0,8.37-1.59,11.22-4.78,2.85-3.29,4.28-7.48,4.28-12.55s-1.43-9.25-4.28-12.55c-2.85-3.22-6.55-4.83-11.11-4.83-4.29,0-7.89,1.63-10.77,4.89-2.85,3.3-4.28,7.37-4.28,12.22Z"/>
    <path d="M628.93,522.21h-29.87v20.6h28.82v12.16h-28.82v40.81h-12.94v-85.73h42.81v12.16Z"/>
    <path d="M654.02,502v93.79h-12.49v-93.79h12.49Z"/>
    <path d="M667.29,568.36c0-7.81,2.79-14.45,8.39-19.93,5.59-5.48,12.4-8.22,20.43-8.22s14.92,2.76,20.55,8.27c5.55,5.52,8.33,12.29,8.33,20.32s-2.8,14.9-8.38,20.38c-5.63,5.44-12.53,8.16-20.71,8.16s-14.9-2.78-20.38-8.33c-5.48-5.48-8.22-12.36-8.22-20.66ZM680.07,568.58c0,5.4,1.44,9.68,4.33,12.83,2.96,3.18,6.87,4.78,11.72,4.78s8.79-1.57,11.72-4.72c2.92-3.15,4.39-7.35,4.39-12.6s-1.46-9.46-4.39-12.61c-2.96-3.18-6.87-4.77-11.72-4.77s-8.64,1.59-11.61,4.77c-2.96,3.18-4.44,7.29-4.44,12.33Z"/>
    <path d="M742.81,541.7l14.16,30.87,15.27-35.82,15.38,35.82,13.99-30.87h13.99l-28.32,58.14-15.05-34.82-15.21,34.82-28.26-58.14h14.05Z"/>
  </g>
  <g>
    <path class="cls-3" d="M510,476.46c-105.04,0-190.5-85.46-190.5-190.5s85.46-190.5,190.5-190.5,190.5,85.46,190.5,190.5-85.46,190.5-190.5,190.5ZM510,101.99c-101.44,0-183.97,82.53-183.97,183.97s82.53,183.97,183.97,183.97,183.97-82.53,183.97-183.97-82.53-183.97-183.97-183.97Z"/>
    <path class="cls-2" d="M654.27,322.89c-13.27,4.29-22.69,3.17-30.78-5.71-1.35,1.76-2.7,3.51-4.08,5.19-7.45,9.26-19.37,22.76-33.68,18.94-9.21-3.01-15.45-14.35-20.05-26.68-.92,3.48-1.68,6.36-2.26,8.17-4.04,14.8-7.67,29.35-13.93,43.8-5.49,13.54-18.39,29.96-35.53,24.98-20.01-6.69-26.21-37.28-31.42-55.07-3.69-14.69-6.82-29.24-9.97-43.63-1.16-5.22-2.33-10.45-3.58-15.62-7.17,17.88-16.5,31.83-29.79,43.94-9.63,8.7-25.22,12.94-37.36,13.77-11.33.77-23.02-.22-33.83-4.13,19.04,60.3,75.41,104.02,142,104.02s128.12-47.83,144.38-112.43c-.04.15-.07.31-.11.47Z"/>
    <g>
      <path class="cls-1" d="M591.5,270.38c-6.02-2.52-11.15,3.6-15.36,12.54,3.27,12.36,6.49,24.7,11.71,36.15.99,2.18,3.92,8.69,19.63-7.02,2.37-2.37,4.8-5.1,7.3-7.93-2.4-4.48-4.41-8.91-6.56-13.13-4.57-8.5-8.43-17.41-16.72-20.61Z"/>
      <path class="cls-1" d="M641.03,296.83c-3.42,2.8-6.5,6.22-9.45,9.85,2.53,3.85,5.52,6.67,9.2,7.07,4.78.18,9.85-.97,15.22-2.24.99-5.57,1.65-11.26,2-17.02-2.68-.64-5.39-.98-8.16-.8-3.78.01-5.63.72-8.81,3.15Z"/>
      <path class="cls-1" d="M401.57,325.59c8.13-1.44,16.25-3.94,22.88-8.33,11.46-7.58,18.44-20.16,24.76-32.25,4.93-9.48,9.31-19.31,13.83-29.09-.53-1.62-1.09-3.21-1.66-4.79-2.52-6.21-4.88-14.72-10.66-17.47-8.2-3.9-25.77,24.11-33.15,36.89-7.55,13.08-14.26,26.55-28.51,34.91-7.49,4.39-16.17,7.13-25.12,8.56.71,3.66,1.55,7.28,2.52,10.84.44.14.88.28,1.31.42,10.87,3.3,22.64,2.29,33.81.31Z"/>
      <path class="cls-1" d="M481.42,254.91c3.83,11.26,6.68,22.47,9.56,33.61,5.18,17.77,12.02,77.01,27.86,77.41,14.21.36,26.88-55.03,32.9-69.88,1.37-3.72,2.82-7.86,4.48-12.06-6.27-21.24-10.9-38.49-21.65-57.19-16.65-30.68-41.77,7.65-53.15,28.1Z"/>
    </g>
    <path class="cls-3" d="M509.7,137.11c-82.06,0-148.58,67.23-148.58,149.29,0,6.19.39,12.29,1.12,18.27.03.04.05.08.05.08,0,0,12.48-5.25,17.42-9.61,16.72-14.75,22.08-34.83,34.41-53.1,9.59-14.2,30.75-35.59,49.8-19.31,4.12,3.8,6.94,7.96,9.28,12.38,5.45-10.26,11.52-20.2,19.31-29.1,18.24-20.84,43.3-20.84,58.2,4.16,9.35,15.69,14.86,32.94,19.58,50.46,4.01-3.77,8.83-6.49,14.81-7.37,8.91-.99,18.67,3.82,24,10.33,6.01,6.96,9.2,14.31,12.3,21.25,1.15,2.28,2.33,5.27,3.63,8.45,7.12-6.63,15.22-11.66,25.13-10.68,2.84.05,5.52.55,8.09,1.33-.95-81.24-67.09-146.81-148.56-146.81Z"/>
  </g>
</svg>